HIERARCHY
ROOT Hips
{
	OFFSET 0.0000 0.0000 0.0000
	CHANNELS 6 Xposition Yposition Zposition Zrotation Xrotation Yrotation
	JOINT Spine1
	{
		OFFSET -0.0137 5.0038 -0.0537
		CHANNELS 3 Zrotation Xrotation Yrotation
		JOINT Spine2
		{
			OFFSET -0.0000 7.1253 -0.0298
			CHANNELS 3 Zrotation Xrotation Yrotation
			JOINT Chest
			{
				OFFSET -0.0000 7.5501 -0.8160
				CHANNELS 3 Zrotation Xrotation Yrotation
				JOINT Neck1
				{
					OFFSET -0.1817 26.3113 -0.5533
					CHANNELS 3 Zrotation Xrotation Yrotation
					JOINT Neck2
					{
						OFFSET -0.0000 7.7094 2.3026
						CHANNELS 3 Zrotation Xrotation Yrotation
						JOINT Head
						{
							OFFSET -0.0000 6.1289 1.9537
							CHANNELS 3 Zrotation Xrotation Yrotation
							JOINT Jaw
							{
								OFFSET 0.0026 0.4756 3.0949
								CHANNELS 3 Zrotation Xrotation Yrotation
								End Site
								{
									OFFSET 0.0 1.0 0.0
								}
							}
							JOINT LeftEye
							{
								OFFSET 3.2064 5.3802 7.5869
								CHANNELS 3 Zrotation Xrotation Yrotation
								End Site
								{
									OFFSET 0.0 1.0 0.0
								}
							}
							JOINT RightEye
							{
								OFFSET -3.2224 5.3619 7.5582
								CHANNELS 3 Zrotation Xrotation Yrotation
								End Site
								{
									OFFSET 0.0 1.0 0.0
								}
							}
						}
					}
				}
				JOINT LeftShoulder
				{
					OFFSET 1.6217 23.2372 5.1134
					CHANNELS 3 Zrotation Xrotation Yrotation
					JOINT LeftArm
					{
						OFFSET 14.9198 0.0000 -5.5023
						CHANNELS 3 Zrotation Xrotation Yrotation
						JOINT LeftForeArm
						{
							OFFSET 28.7393 0.0000 -0.0026
							CHANNELS 3 Zrotation Xrotation Yrotation
							JOINT LeftHand
							{
								OFFSET 27.0940 -0.0000 0.0026
								CHANNELS 3 Zrotation Xrotation Yrotation
								JOINT LeftHandThumbEnd
								{
									OFFSET 12.2686 -3.2202 4.8331
									CHANNELS 3 Zrotation Xrotation Yrotation
									End Site
									{
										OFFSET 0.0 1.0 0.0
									}
								}
								JOINT LeftHandMiddleEnd
								{
									OFFSET 19.0120 -0.3129 -0.0340
									CHANNELS 3 Zrotation Xrotation Yrotation
									End Site
									{
										OFFSET 0.0 1.0 0.0
									}
								}
							}
						}
					}
				}
				JOINT RightShoulder
				{
					OFFSET -1.3801 23.1803 5.2142
					CHANNELS 3 Zrotation Xrotation Yrotation
					JOINT RightArm
					{
						OFFSET -15.0372 0.0000 -5.5456
						CHANNELS 3 Zrotation Xrotation Yrotation
						JOINT RightForeArm
						{
							OFFSET -28.7366 0.0000 -0.0026
							CHANNELS 3 Zrotation Xrotation Yrotation
							JOINT RightHand
							{
								OFFSET -27.1336 -0.0000 0.0026
								CHANNELS 3 Zrotation Xrotation Yrotation
								JOINT RightHandThumbEnd
								{
									OFFSET -12.2642 -3.2115 4.8040
									CHANNELS 3 Zrotation Xrotation Yrotation
									End Site
									{
										OFFSET 0.0 1.0 0.0
									}
								}
								JOINT RightHandMiddleEnd
								{
									OFFSET -19.0006 -0.3066 -0.0316
									CHANNELS 3 Zrotation Xrotation Yrotation
									End Site
									{
										OFFSET 0.0 1.0 0.0
									}
								}
							}
						}
					}
				}
			}
		}
	}
	JOINT LeftLeg
	{
		OFFSET 10.0432 -8.4345 2.5957
		CHANNELS 3 Zrotation Xrotation Yrotation
		JOINT LeftShin
		{
			OFFSET -0.0000 -43.2218 -0.8029
			CHANNELS 3 Zrotation Xrotation Yrotation
			JOINT LeftFoot
			{
				OFFSET 0.0000 -42.1551 -3.4815
				CHANNELS 3 Zrotation Xrotation Yrotation
				JOINT LeftToeBase
				{
					OFFSET 0.0000 -5.0595 13.2315
					CHANNELS 3 Zrotation Xrotation Yrotation
					End Site
					{
						OFFSET 0.0 1.0 0.0
					}
				}
			}
		}
	}
	JOINT RightLeg
	{
		OFFSET -10.0473 -8.2953 2.6203
		CHANNELS 3 Zrotation Xrotation Yrotation
		JOINT RightShin
		{
			OFFSET 0.0000 -43.3622 -0.8056
			CHANNELS 3 Zrotation Xrotation Yrotation
			JOINT RightFoot
			{
				OFFSET 0.0000 -42.1174 -3.4784
				CHANNELS 3 Zrotation Xrotation Yrotation
				JOINT RightToeBase
				{
					OFFSET -0.0000 -5.0796 13.2842
					CHANNELS 3 Zrotation Xrotation Yrotation
					End Site
					{
						OFFSET 0.0 1.0 0.0
					}
				}
			}
		}
	}
}
MOTION
Frames: 12
Frame Time: 0.033333
-1.0170 96.0356 -2.0128 1.4596 5.7419 0.2697 -1.5328 4.3309 -0.4119 -0.8162 -3.3948 -0.6185 -1.8964 13.2169 -2.9052 6.9379 8.2482 1.0505 -1.1194 -3.6159 0.1432 -0.8516 -17.0218 -0.2729 0.0346 0.0177 -0.0202 0.7507 -10.5386 -3.8761 -0.6803 -10.4743 3.8265 -5.6490 11.8540 -18.0475 -49.7939 3.7351 -36.5672 0.9544 -0.7171 -91.5861 39.8275 -63.3931 -37.9761 -14.5048 10.7762 15.9473 -59.8903 1.3320 2.1781 2.9673 9.1328 14.9674 36.4558 -6.7935 22.0024 -0.2302 0.2894 118.3065 18.8906 13.2975 -0.1919 16.0523 7.8421 -16.5910 51.2307 -2.9222 -5.5111 8.9648 -24.8939 14.7250 -0.2725 25.4699 -0.3921 -12.9751 -7.0772 -9.3676 1.6242 -0.1856 -1.9454 -10.4213 -25.1129 -14.4381 0.2709 33.2700 0.3374 10.5925 -13.0604 -2.1664 -1.4205 0.3299 1.0001
-1.2069 95.9307 -2.0464 1.5162 5.6066 0.6192 -1.2871 4.4414 -0.3132 -0.7302 -3.4445 -0.4706 -1.5786 13.2659 -2.6805 6.5111 8.3654 1.1463 -1.1620 -3.6401 -0.1870 -0.7867 -16.9812 -0.6314 0.0248 0.0152 -0.0044 0.7317 -10.5253 -3.8557 -0.6806 -10.4592 3.8399 -6.0732 11.9619 -17.5719 -50.8306 5.1333 -37.1762 0.7270 -0.5889 -93.4916 32.9160 -57.6919 -29.8846 -14.5571 10.9724 16.1186 -59.7072 1.4418 2.0952 2.7861 9.1765 15.8095 37.4398 -9.5947 21.5772 -0.7056 0.1423 115.1708 16.9895 3.3060 -0.2393 15.8851 7.9709 -16.2569 51.0669 -2.8624 -5.2673 9.0653 -25.0637 14.5156 -0.2958 25.8006 -0.4143 -13.2145 -7.2401 -9.3942 1.6221 -0.0443 -1.9396 -10.4220 -25.2039 -14.5050 0.2703 33.8786 0.3136 10.6399 -13.3815 -2.4952 -1.4307 0.4753 1.0196
-1.3819 95.7969 -2.0948 1.6208 5.4356 0.9744 -1.0270 4.4764 -0.2980 -0.6558 -3.4764 -0.2708 -1.2205 13.4407 -2.3977 5.9972 8.5433 1.3816 -1.2677 -3.6911 -0.7618 -0.7537 -16.8631 -1.1003 0.0207 0.0144 -0.0059 0.7112 -10.5299 -3.8545 -0.6682 -10.4697 3.8333 -6.6357 12.1557 -16.8896 -51.4124 6.3288 -37.3985 0.5322 -0.5438 -96.0850 26.2135 -49.1886 -22.0182 -14.6696 11.0980 16.3476 -59.4137 1.5423 2.1610 2.8615 9.3523 17.0695 39.0461 -12.4701 20.6769 -1.2649 0.1797 110.7285 15.1301 -13.8797 -0.4198 15.2952 7.8558 -15.8106 50.6471 -2.9812 -5.0192 9.0836 -25.1546 14.4261 -0.2963 26.0896 -0.4325 -13.2742 -7.3876 -9.5164 1.6346 -0.0033 -1.9100 -10.5216 -25.3047 -14.6746 0.2878 34.4606 0.3241 10.7267 -13.6536 -2.5775 -1.4315 0.6520 1.0445
-1.5510 95.6878 -2.1416 1.7051 5.2118 1.2367 -0.7592 4.4737 -0.3032 -0.5818 -3.4769 -0.0218 -0.7868 13.6735 -2.0577 5.3617 8.7756 1.5935 -1.4024 -3.7575 -1.2765 -0.7300 -16.7194 -1.5964 0.0199 0.0102 -0.0059 0.6928 -10.5340 -3.8533 -0.6511 -10.4788 3.8300 -7.1960 12.4115 -16.0428 -51.5775 7.2862 -37.4038 0.3461 -0.6650 -99.1569 21.4753 -38.1410 -16.3156 -14.8630 11.0639 16.4470 -59.1723 1.6748 2.2285 3.3394 9.6775 18.4240 40.6424 -15.3332 19.7544 -1.4816 0.2540 105.4797 14.7103 -33.3118 -0.7289 14.5334 7.3611 -15.3201 49.5130 -3.3978 -4.8544 9.1232 -25.1190 14.3684 -0.2855 26.3047 -0.4394 -13.2127 -7.4951 -9.6424 1.6461 -0.0232 -1.8690 -10.6269 -25.2652 -14.8677 0.2910 34.8433 0.3338 10.8249 -13.8502 -2.5737 -1.4309 0.8342 1.0691
-1.6803 95.6256 -2.1852 1.7556 5.0123 1.3859 -0.4846 4.4228 -0.2642 -0.4894 -3.4734 0.1786 -0.2680 13.9352 -1.6772 4.6021 9.0561 1.7721 -1.4397 -3.8011 -1.6917 -0.7609 -16.7118 -2.0084 0.0200 0.0169 0.0043 0.6816 -10.5218 -3.8393 -0.6392 -10.4707 3.8350 -7.6057 12.6049 -15.1342 -51.3788 8.1380 -37.4587 0.3335 -0.7576 -102.5192 18.9739 -25.8075 -12.8059 -15.0677 10.7966 16.2897 -59.0640 1.7737 2.2358 4.0265 10.0024 19.6424 42.0640 -18.0951 19.0678 -1.4574 0.1871 100.4600 15.9431 -47.3226 -2.6431 14.4652 6.9400 -14.9553 48.5065 -3.7201 -4.7428 9.1772 -25.1065 14.3510 -0.2772 26.5539 -0.4296 -13.0829 -7.5416 -9.6908 1.6515 -0.0059 -1.8426 -10.6809 -25.2036 -15.0146 0.2832 35.1260 0.3439 10.8876 -13.9936 -2.5148 -1.4290 0.9873 1.0812
-1.7809 95.5539 -2.2295 1.7840 4.8571 1.4276 -0.2218 4.3548 -0.2205 -0.3903 -3.4702 0.3213 0.2585 14.1671 -1.3191 3.8556 9.3470 1.9060 -1.4214 -3.8199 -2.0087 -0.8332 -16.7884 -2.2935 0.0217 0.0329 0.0033 0.6765 -10.5059 -3.8388 -0.6312 -10.4618 3.8304 -7.7431 12.7437 -14.2218 -50.7117 8.7645 -37.5767 0.4380 -0.7639 -105.8789 17.7015 -13.2553 -10.5519 -15.1265 10.3648 15.8028 -58.9694 1.8004 2.1936 4.7190 10.2373 20.7016 43.6823 -20.6361 18.3578 -1.2849 0.0488 95.8807 17.4111 -56.2569 -5.2412 14.8890 6.8975 -15.0183 48.3378 -3.8200 -4.7068 9.2163 -25.1500 14.3613 -0.2692 26.8852 -0.4123 -12.9399 -7.6373 -9.6693 1.6556 0.0802 -1.8420 -10.7092 -25.1969 -15.1042 0.2877 35.3870 0.3865 10.8919 -14.1039 -2.4118 -1.4251 1.1164 1.0818
-1.8241 95.4906 -2.2932 1.8050 4.7378 1.3719 0.0132 4.2855 -0.1699 -0.2941 -3.4505 0.4248 0.7378 14.3458 -1.0173 3.1843 9.6152 1.9956 -1.4006 -3.8166 -2.1879 -0.9244 -16.8800 -2.5129 0.0224 0.0479 0.0169 0.6729 -10.4945 -3.8248 -0.6263 -10.4587 3.8428 -7.6608 12.8303 -13.3463 -49.4225 9.2243 -37.7855 0.6224 -0.6823 -109.0640 16.8445 -0.5567 -8.6535 -14.9988 10.0688 15.2694 -59.0888 1.7675 2.1789 5.4254 10.4173 21.6389 45.6491 -22.8744 17.4136 -0.9697 -0.1488 91.8587 17.8913 -62.4900 -7.2814 15.3325 7.1008 -15.2431 48.7073 -3.7639 -4.7053 9.2417 -25.2219 14.3794 -0.2739 27.2721 -0.4017 -12.8259 -7.8023 -9.5345 1.6586 0.1493 -1.8431 -10.7558 -25.2468 -15.0377 0.2949 35.6553 0.4327 10.8838 -14.1569 -2.2962 -1.4195 1.1671 1.0908
-1.8041 95.4325 -2.3454 1.8338 4.6230 1.2718 0.2053 4.2119 -0.1263 -0.2217 -3.4304 0.4945 1.1727 14.5154 -0.7571 2.6267 9.7830 2.0923 -1.3842 -3.7944 -2.3695 -1.0081 -16.9427 -2.6505 0.0227 0.0621 0.0278 0.6711 -10.4828 -3.8158 -0.6246 -10.4546 3.8562 -7.4580 12.8296 -12.6203 -47.5449 9.5036 -37.9697 0.7496 -0.4862 -111.9091 15.9882 10.7115 -6.7925 -14.9172 10.1132 15.1455 -59.5583 1.7223 2.2393 6.1509 10.6279 22.4109 48.0235 -24.6806 16.1993 -0.6169 -0.2883 88.6263 16.7922 -67.7223 -8.1216 15.6901 7.4502 -15.4502 49.3565 -3.6267 -4.7300 9.2446 -25.2648 14.3749 -0.2827 27.6581 -0.4031 -12.7277 -7.9962 -9.3732 1.6599 0.2177 -1.8354 -10.8540 -25.2810 -14.8891 0.2997 35.8590 0.4638 10.8625 -14.1889 -2.1568 -1.4138 1.1466 1.0903
-1.7580 95.3704 -2.4028 1.8730 4.5229 1.1373 0.3540 4.1451 -0.1000 -0.1802 -3.4123 0.5456 1.5486 14.6711 -0.5828 2.2014 9.8694 2.2175 -1.3803 -3.7688 -2.5657 -1.0819 -16.9788 -2.7642 0.0232 0.0759 0.0337 0.6712 -10.4698 -3.8096 -0.6242 -10.4470 3.8621 -7.1791 12.7066 -12.0714 -45.2343 9.5618 -37.9921 0.7583 -0.2095 -114.3618 14.9901 19.5010 -5.0530 -15.0936 10.3153 15.2972 -60.1331 1.6683 2.3231 6.8678 10.8929 23.0101 50.6092 -25.8549 14.8425 -0.2349 -0.4373 86.3467 12.9880 -72.6492 -6.6882 15.8212 7.8153 -15.5456 49.8831 -3.4791 -4.7432 9.2173 -25.3288 14.3829 -0.2995 28.0884 -0.4083 -12.6238 -8.2311 -9.2200 1.6616 0.2729 -1.8315 -10.9942 -25.3299 -14.7059 0.3024 36.0492 0.4834 10.8469 -14.2620 -1.9979 -1.4095 1.1216 1.0827
-1.6614 95.3135 -2.4320 1.9118 4.4260 0.9589 0.4480 4.0956 -0.0716 -0.1570 -3.4096 0.5244 1.8514 14.8417 -0.4575 1.8547 9.8891 2.3296 -1.3768 -3.7349 -2.7155 -1.1179 -16.9856 -2.8818 0.0238 0.0889 0.0376 0.6729 -10.4651 -3.8072 -0.6254 -10.4453 3.8698 -6.8563 12.5307 -11.6971 -42.5951 9.2894 -37.7771 0.6730 0.1069 -116.3950 13.6191 25.6539 -3.4792 -15.4018 10.5188 15.4442 -60.6183 1.6251 2.3887 7.5197 11.1589 23.3963 53.0453 -26.1531 13.7301 0.1598 -0.6224 84.9356 4.5044 -77.2837 -0.7696 15.6542 8.0643 -15.4825 50.0165 -3.3383 -4.7167 9.1727 -25.3873 14.3982 -0.3190 28.5407 -0.4145 -12.4750 -8.4861 -9.1065 1.6645 0.3255 -1.8341 -11.1586 -25.3728 -14.5128 0.3004 36.2218 0.4976 10.8193 -14.3581 -1.8532 -1.4075 1.1263 1.0793
-1.5129 95.2487 -2.4623 1.9397 4.3307 0.7253 0.5088 4.0512 -0.0788 -0.1587 -3.4107 0.4895 2.0990 14.9978 -0.3827 1.5224 9.9043 2.3880 -1.3631 -3.7005 -2.8353 -1.0928 -16.9994 -2.9921 0.0243 0.0967 0.0408 0.6772 -10.4486 -3.8024 -0.6293 -10.4283 3.8708 -6.5017 12.3162 -11.4282 -39.7015 8.6797 -37.3645 0.5087 0.4688 -118.0240 11.8018 29.7029 -2.1948 -15.6768 10.6667 15.4963 -60.9181 1.6005 2.4286 8.0968 11.4216 23.5576 55.1443 -25.4916 13.1011 0.5467 -0.7153 84.1974 -12.1917 -81.4229 13.4169 15.3620 8.1627 -15.3421 49.8070 -3.2760 -4.6184 9.1245 -25.4211 14.4243 -0.3266 28.9876 -0.4076 -12.3035 -8.7274 -9.0387 1.6658 0.3596 -1.8475 -11.3193 -25.4061 -14.3687 0.3085 36.3280 0.5376 10.7921 -14.4098 -1.7063 -1.4055 1.1068 1.0691
-1.3099 95.1946 -2.4650 1.9506 4.2587 0.3784 0.5345 4.0197 -0.0695 -0.1635 -3.4185 0.3962 2.2558 15.1309 -0.3665 1.2475 9.9054 2.4339 -1.3672 -3.6681 -2.9037 -1.0404 -17.0167 -3.0585 0.0241 0.0998 0.0497 0.6791 -10.4271 -3.7911 -0.6324 -10.4083 3.8789 -6.0944 12.0621 -11.2726 -36.8313 7.7578 -36.6936 0.3284 0.7935 -119.2150 9.6200 31.6222 -1.3676 -15.7917 10.7546 15.4608 -61.0324 1.5977 2.4342 8.5658 11.6581 23.5723 56.6709 -23.8715 13.1426 0.8666 -0.7759 83.9622 -42.9551 -83.9119 41.9873 15.0439 8.1604 -15.1675 49.3955 -3.2184 -4.5161 9.0639 -25.4131 14.4714 -0.3308 29.3982 -0.3985 -12.1208 -8.9875 -8.9377 1.6647 0.3793 -1.8706 -11.4794 -25.4463 -14.2067 0.3106 36.3677 0.5507 10.7957 -14.4149 -1.4958 -1.4054 1.0600 1.0554
